<?xml version="1.0" encoding="UTF-8"?>
<svg xmlns="http://www.w3.org/2000/svg" xmlns:xlink="http://www.w3.org/1999/xlink" width="314" height="260" viewBox="0 0 314 260">
<rect x="-31.4" y="-26" width="376.8" height="312" fill="rgb(100%, 100%, 100%)" fill-opacity="1"/>
<path fill="none" stroke-width="1" stroke-linecap="butt" stroke-linejoin="miter" stroke="rgb(45.490196%, 78.823529%, 89.803922%)" stroke-opacity="1" stroke-miterlimit="4" d="M 198 -252 L 195 -256 L 174 -256 L 171 -252 L 144 -252 L 144 -216 L 198 -216 Z M 198 -252 " transform="matrix(1, 0, 0, 1, 4, 256)"/>
<path fill-rule="nonzero" fill="rgb(0%, 0%, 0%)" fill-opacity="1" d="M 172.570312 26.199219 L 176.210938 16.847656 L 177.425781 16.847656 L 173.789062 26.199219 Z M 172.359375 12.898438 "/>
<path fill="none" stroke-width="1" stroke-linecap="butt" stroke-linejoin="miter" stroke="rgb(0%, 0%, 0%)" stroke-opacity="1" stroke-miterlimit="4" d="M 90 -180 L 87 -184 L 66 -184 L 63 -180 L 36 -180 L 36 -144 L 90 -144 Z M 90 -180 " transform="matrix(1, 0, 0, 1, 4, 256)"/>
<path fill-rule="nonzero" fill="rgb(0%, 0%, 0%)" fill-opacity="1" d="M 62.757812 98.199219 L 66.269531 88.832031 L 67.742188 88.832031 L 71.242188 98.199219 L 69.839844 98.199219 L 69.128906 96.15625 L 64.871094 96.15625 L 64.15625 98.199219 Z M 65.277344 95.019531 L 68.722656 95.019531 L 67 90.164062 Z M 62.617188 84.898438 "/>
<path fill="none" stroke-width="1" stroke-linecap="butt" stroke-linejoin="miter" stroke="rgb(0%, 0%, 0%)" stroke-opacity="1" stroke-miterlimit="4" d="M 143.746094 -215.832031 C 127.375 -204.917969 106.613281 -191.078125 90.246094 -180.164062 " transform="matrix(1, 0, 0, 1, 4, 256)"/>
<path fill="none" stroke-width="1" stroke-linecap="butt" stroke-linejoin="miter" stroke="rgb(45.490196%, 78.823529%, 89.803922%)" stroke-opacity="1" stroke-miterlimit="4" d="M 162 -180 L 159 -184 L 138 -184 L 135 -180 L 108 -180 L 108 -144 L 162 -144 Z M 162 -180 " transform="matrix(1, 0, 0, 1, 4, 256)"/>
<path fill-rule="nonzero" fill="rgb(0%, 0%, 0%)" fill-opacity="1" d="M 135.730469 98.199219 L 135.730469 88.847656 L 139.496094 88.847656 C 140.175781 88.847656 140.726562 88.960938 141.15625 89.183594 C 141.578125 89.410156 141.890625 89.699219 142.09375 90.046875 C 142.289062 90.398438 142.390625 90.773438 142.394531 91.171875 C 142.390625 91.546875 142.304688 91.914062 142.140625 92.277344 C 141.96875 92.644531 141.726562 92.960938 141.414062 93.230469 C 141.878906 93.472656 142.226562 93.804688 142.457031 94.21875 C 142.683594 94.636719 142.800781 95.066406 142.800781 95.511719 C 142.800781 95.960938 142.683594 96.390625 142.457031 96.800781 C 142.226562 97.210938 141.886719 97.546875 141.429688 97.808594 C 140.96875 98.070312 140.398438 98.199219 139.722656 98.199219 Z M 137.046875 92.851562 L 139.636719 92.851562 C 140.113281 92.855469 140.46875 92.707031 140.707031 92.40625 C 140.945312 92.109375 141.066406 91.78125 141.066406 91.421875 C 141.066406 91.183594 141.011719 90.949219 140.902344 90.722656 C 140.792969 90.5 140.632812 90.316406 140.425781 90.171875 C 140.214844 90.027344 139.953125 89.957031 139.636719 89.953125 L 137.046875 89.953125 Z M 137.046875 97.09375 L 139.863281 97.09375 C 140.203125 97.097656 140.492188 97.019531 140.726562 96.855469 C 140.960938 96.699219 141.136719 96.496094 141.261719 96.246094 C 141.378906 96.003906 141.441406 95.742188 141.445312 95.46875 C 141.441406 95.199219 141.382812 94.945312 141.269531 94.707031 C 141.148438 94.46875 140.96875 94.273438 140.734375 94.117188 C 140.492188 93.964844 140.199219 93.886719 139.847656 93.886719 L 137.046875 93.886719 Z M 134.667969 84.898438 "/>
<path fill="none" stroke-width="1" stroke-linecap="butt" stroke-linejoin="miter" stroke="rgb(90.588235%, 18.823529%, 21.568627%)" stroke-opacity="1" stroke-miterlimit="4" d="M 161.914062 -215.832031 C 156.5 -205 149.644531 -191.289062 144.207031 -180.414062 " transform="matrix(1, 0, 0, 1, 4, 256)"/>
<path fill="none" stroke-width="1" stroke-linecap="butt" stroke-linejoin="miter" stroke="rgb(0%, 0%, 0%)" stroke-opacity="1" stroke-miterlimit="4" d="M 234 -180 L 231 -184 L 210 -184 L 207 -180 L 180 -180 L 180 -144 L 234 -144 Z M 234 -180 " transform="matrix(1, 0, 0, 1, 4, 256)"/>
<path fill-rule="nonzero" fill="rgb(0%, 0%, 0%)" fill-opacity="1" d="M 211.347656 98.367188 C 210.457031 98.363281 209.699219 98.160156 209.066406 97.746094 C 208.429688 97.332031 207.941406 96.757812 207.609375 96.03125 C 207.269531 95.304688 207.101562 94.464844 207.105469 93.507812 C 207.101562 92.542969 207.28125 91.695312 207.644531 90.96875 C 208 90.246094 208.507812 89.683594 209.164062 89.28125 C 209.816406 88.882812 210.582031 88.683594 211.460938 88.679688 C 212.242188 88.683594 212.949219 88.867188 213.582031 89.226562 C 214.210938 89.59375 214.683594 90.113281 215.003906 90.792969 L 213.855469 91.214844 C 213.644531 90.792969 213.335938 90.449219 212.921875 90.183594 C 212.507812 89.917969 211.996094 89.785156 211.390625 89.785156 C 210.835938 89.785156 210.339844 89.925781 209.898438 90.207031 C 209.453125 90.488281 209.097656 90.90625 208.839844 91.460938 C 208.574219 92.015625 208.445312 92.699219 208.449219 93.507812 C 208.445312 94.292969 208.570312 94.964844 208.828125 95.523438 C 209.078125 96.085938 209.429688 96.515625 209.882812 96.8125 C 210.332031 97.113281 210.851562 97.261719 211.433594 97.261719 C 212.039062 97.261719 212.546875 97.132812 212.964844 96.871094 C 213.378906 96.609375 213.695312 96.261719 213.910156 95.832031 L 215.058594 96.253906 C 214.71875 96.945312 214.222656 97.472656 213.574219 97.828125 C 212.917969 98.1875 212.175781 98.363281 211.347656 98.367188 Z M 206.40625 84.898438 "/>
<path fill="none" stroke-width="1" stroke-linecap="butt" stroke-linejoin="miter" stroke="rgb(0%, 0%, 0%)" stroke-opacity="1" stroke-miterlimit="4" d="M 180.085938 -215.832031 C 185.5 -205 192.355469 -191.289062 197.792969 -180.414062 " transform="matrix(1, 0, 0, 1, 4, 256)"/>
<path fill="none" stroke-width="1" stroke-linecap="butt" stroke-linejoin="miter" stroke="rgb(0%, 0%, 0%)" stroke-opacity="1" stroke-miterlimit="4" d="M 306 -180 L 303 -184 L 282 -184 L 279 -180 L 252 -180 L 252 -144 L 306 -144 Z M 306 -180 " transform="matrix(1, 0, 0, 1, 4, 256)"/>
<path fill-rule="nonzero" fill="rgb(0%, 0%, 0%)" fill-opacity="1" d="M 279.351562 98.199219 L 279.351562 88.847656 L 281.902344 88.847656 C 282.644531 88.847656 283.328125 88.925781 283.949219 89.078125 C 284.570312 89.234375 285.109375 89.488281 285.566406 89.84375 C 286.023438 90.199219 286.378906 90.679688 286.632812 91.277344 C 286.882812 91.882812 287.007812 92.625 287.011719 93.507812 C 287.007812 94.40625 286.882812 95.15625 286.632812 95.757812 C 286.378906 96.363281 286.023438 96.84375 285.566406 97.199219 C 285.109375 97.5625 284.570312 97.820312 283.949219 97.96875 C 283.328125 98.125 282.644531 98.199219 281.902344 98.199219 Z M 280.667969 97.09375 L 281.875 97.09375 C 282.359375 97.097656 282.828125 97.058594 283.28125 96.976562 C 283.734375 96.898438 284.136719 96.738281 284.496094 96.5 C 284.851562 96.261719 285.136719 95.902344 285.351562 95.421875 C 285.558594 94.941406 285.664062 94.304688 285.667969 93.507812 C 285.664062 92.71875 285.558594 92.085938 285.351562 91.613281 C 285.136719 91.144531 284.851562 90.792969 284.496094 90.550781 C 284.136719 90.316406 283.734375 90.15625 283.28125 90.074219 C 282.828125 89.996094 282.359375 89.957031 281.875 89.953125 L 280.667969 89.953125 Z M 278.289062 84.898438 "/>
<path fill="none" stroke-width="1" stroke-linecap="butt" stroke-linejoin="miter" stroke="rgb(0%, 0%, 0%)" stroke-opacity="1" stroke-miterlimit="4" d="M 198.253906 -215.832031 C 214.625 -204.917969 235.386719 -191.078125 251.753906 -180.164062 " transform="matrix(1, 0, 0, 1, 4, 256)"/>
<path fill="none" stroke-width="1" stroke-linecap="butt" stroke-linejoin="miter" stroke="rgb(45.490196%, 78.823529%, 89.803922%)" stroke-opacity="1" stroke-miterlimit="4" d="M 90 -108 L 87 -112 L 66 -112 L 63 -108 L 36 -108 L 36 -72 L 90 -72 Z M 90 -108 " transform="matrix(1, 0, 0, 1, 4, 256)"/>
<path fill-rule="nonzero" fill="rgb(0%, 0%, 0%)" fill-opacity="1" d="M 64.09375 170.199219 L 64.09375 160.847656 L 70.4375 160.847656 L 70.4375 161.980469 L 65.410156 161.980469 L 65.410156 164.824219 L 69.121094 164.824219 L 69.121094 165.957031 L 65.410156 165.957031 L 65.410156 169.066406 L 70.4375 169.066406 L 70.4375 170.199219 Z M 63.03125 156.898438 "/>
<path fill="none" stroke-width="1" stroke-linecap="butt" stroke-linejoin="miter" stroke="rgb(90.588235%, 18.823529%, 21.568627%)" stroke-opacity="1" stroke-miterlimit="4" d="M 116.832031 -143.832031 C 106 -133 92.289062 -119.289062 81.414062 -108.414062 " transform="matrix(1, 0, 0, 1, 4, 256)"/>
<path fill="none" stroke-width="1" stroke-linecap="butt" stroke-linejoin="miter" stroke="rgb(0%, 0%, 0%)" stroke-opacity="1" stroke-miterlimit="4" d="M 162 -108 L 159 -112 L 138 -112 L 135 -108 L 108 -108 L 108 -72 L 162 -72 Z M 162 -108 " transform="matrix(1, 0, 0, 1, 4, 256)"/>
<path fill-rule="nonzero" fill="rgb(0%, 0%, 0%)" fill-opacity="1" d="M 136.226562 170.199219 L 136.226562 160.847656 L 142.304688 160.847656 L 142.304688 161.980469 L 137.542969 161.980469 L 137.542969 164.824219 L 142.304688 164.824219 L 142.304688 165.957031 L 137.542969 165.957031 L 137.542969 170.199219 Z M 135.164062 156.898438 "/>
<path fill="none" stroke-width="1" stroke-linecap="butt" stroke-linejoin="miter" stroke="rgb(0%, 0%, 0%)" stroke-opacity="1" stroke-miterlimit="4" d="M 135 -143.832031 C 135 -133 135 -119.289062 135 -108.414062 " transform="matrix(1, 0, 0, 1, 4, 256)"/>
<path fill="none" stroke-width="1" stroke-linecap="butt" stroke-linejoin="miter" stroke="rgb(0%, 0%, 0%)" stroke-opacity="1" stroke-miterlimit="4" d="M 234 -108 L 231 -112 L 210 -112 L 207 -108 L 180 -108 L 180 -72 L 234 -72 Z M 234 -108 " transform="matrix(1, 0, 0, 1, 4, 256)"/>
<path fill-rule="nonzero" fill="rgb(0%, 0%, 0%)" fill-opacity="1" d="M 210.960938 170.367188 C 210.0625 170.363281 209.300781 170.160156 208.671875 169.746094 C 208.039062 169.332031 207.558594 168.757812 207.226562 168.03125 C 206.894531 167.304688 206.726562 166.464844 206.730469 165.507812 C 206.726562 164.542969 206.90625 163.695312 207.269531 162.96875 C 207.625 162.246094 208.132812 161.683594 208.789062 161.28125 C 209.441406 160.882812 210.207031 160.683594 211.085938 160.679688 C 211.867188 160.683594 212.574219 160.867188 213.207031 161.226562 C 213.835938 161.59375 214.3125 162.113281 214.640625 162.792969 L 213.480469 163.214844 C 213.269531 162.792969 212.960938 162.449219 212.546875 162.183594 C 212.132812 161.917969 211.621094 161.785156 211.015625 161.785156 C 210.460938 161.785156 209.964844 161.925781 209.523438 162.207031 C 209.078125 162.488281 208.722656 162.90625 208.464844 163.460938 C 208.199219 164.015625 208.070312 164.699219 208.074219 165.507812 C 208.070312 166.292969 208.195312 166.964844 208.445312 167.523438 C 208.691406 168.085938 209.035156 168.515625 209.480469 168.8125 C 209.921875 169.113281 210.433594 169.261719 211.015625 169.261719 C 211.320312 169.261719 211.636719 169.226562 211.964844 169.152344 C 212.289062 169.078125 212.589844 168.949219 212.863281 168.765625 C 213.132812 168.585938 213.351562 168.335938 213.519531 168.015625 C 213.6875 167.699219 213.769531 167.296875 213.773438 166.8125 L 213.773438 166.503906 L 211.042969 166.503906 L 211.042969 165.371094 L 215.019531 165.371094 L 215.019531 170.199219 L 214.261719 170.199219 L 213.914062 169.023438 C 213.609375 169.503906 213.203125 169.847656 212.6875 170.054688 C 212.167969 170.261719 211.589844 170.363281 210.960938 170.367188 Z M 206.03125 156.898438 "/>
<path fill="none" stroke-width="1" stroke-linecap="butt" stroke-linejoin="miter" stroke="rgb(0%, 0%, 0%)" stroke-opacity="1" stroke-miterlimit="4" d="M 153.167969 -143.832031 C 164 -133 177.710938 -119.289062 188.585938 -108.414062 " transform="matrix(1, 0, 0, 1, 4, 256)"/>
<path fill="none" stroke-width="1" stroke-linecap="butt" stroke-linejoin="miter" stroke="rgb(45.490196%, 78.823529%, 89.803922%)" stroke-opacity="1" stroke-miterlimit="4" d="M 54 -36 L 51 -40 L 30 -40 L 27 -36 L 0 -36 L 0 0 L 54 0 Z M 54 -36 " transform="matrix(1, 0, 0, 1, 4, 256)"/>
<path fill-rule="nonzero" fill="rgb(0%, 0%, 0%)" fill-opacity="1" d="M 27.234375 242.199219 L 27.234375 232.847656 L 28.550781 232.847656 L 28.550781 236.824219 L 33.453125 236.824219 L 33.453125 232.847656 L 34.769531 232.847656 L 34.769531 242.199219 L 33.453125 242.199219 L 33.453125 237.957031 L 28.550781 237.957031 L 28.550781 242.199219 Z M 26.171875 228.898438 "/>
<path fill="none" stroke-width="1" stroke-linecap="butt" stroke-linejoin="miter" stroke="rgb(90.588235%, 18.823529%, 21.568627%)" stroke-opacity="1" stroke-miterlimit="4" d="M 53.914062 -71.832031 C 48.5 -61 41.644531 -47.289062 36.207031 -36.414062 " transform="matrix(1, 0, 0, 1, 4, 256)"/>
<path fill="none" stroke-width="1" stroke-linecap="butt" stroke-linejoin="miter" stroke="rgb(0%, 0%, 0%)" stroke-opacity="1" stroke-miterlimit="4" d="M 126 -36 L 123 -40 L 102 -40 L 99 -36 L 72 -36 L 72 0 L 126 0 Z M 126 -36 " transform="matrix(1, 0, 0, 1, 4, 256)"/>
<path fill-rule="nonzero" fill="rgb(0%, 0%, 0%)" fill-opacity="1" d="M 101.027344 242.199219 L 101.027344 241.164062 L 102.339844 241.164062 L 102.339844 233.882812 L 101.027344 233.882812 L 101.027344 232.847656 L 104.972656 232.847656 L 104.972656 233.882812 L 103.65625 233.882812 L 103.65625 241.164062 L 104.972656 241.164062 L 104.972656 242.199219 Z M 100.101562 228.898438 "/>
<path fill="none" stroke-width="1" stroke-linecap="butt" stroke-linejoin="miter" stroke="rgb(0%, 0%, 0%)" stroke-opacity="1" stroke-miterlimit="4" d="M 72.085938 -71.832031 C 77.5 -61 84.355469 -47.289062 89.792969 -36.414062 " transform="matrix(1, 0, 0, 1, 4, 256)"/>
</svg>
